<?xml version="1.0" standalone="no"?>
<!DOCTYPE svg PUBLIC "-//W3C//DTD SVG 20010904//EN"
 "http://www.w3.org/TR/2001/REC-SVG-20010904/DTD/svg10.dtd">
<svg version="1.0" xmlns="http://www.w3.org/2000/svg"
 width="500.000000pt" height="500.000000pt" viewBox="0 0 500.000000 500.000000"
 preserveAspectRatio="xMidYMid meet">
<metadata>
Created by potrace 1.11, written by Peter Selinger 2001-2013
</metadata>
<g transform="translate(0.000000,500.000000) scale(0.100000,-0.100000)"
fill="#000000" stroke="none">
<path d="M4301 4834 c-44 -31 -73 -129 -87 -288 -11 -127 -66 -215 -217 -347
-180 -157 -455 -329 -802 -499 -385 -189 -736 -321 -1020 -385 -654 -147 -894
-218 -1133 -338 -169 -84 -217 -140 -445 -522 -171 -285 -225 -406 -242 -533
-4 -26 -41 -270 -50 -322 -2 -14 -7 -47 -11 -75 -3 -27 -8 -59 -10 -70 -18
-92 -15 -174 10 -271 103 -408 282 -656 540 -750 34 -12 83 -26 107 -30 50 -7
245 -7 258 0 5 3 26 8 47 12 109 17 245 94 335 191 94 102 133 200 138 346 6
183 -65 312 -201 362 -64 24 -251 27 -338 6 -117 -29 -202 -95 -226 -179 -23
-78 3 -222 41 -222 22 0 28 18 30 85 6 148 92 215 269 210 126 -3 199 -44 247
-137 26 -50 24 -110 -6 -202 -38 -118 -99 -204 -181 -256 -62 -39 -111 -52
-204 -55 -222 -6 -414 100 -553 304 -95 138 -169 348 -161 458 22 325 121 679
279 998 138 277 298 462 490 566 54 29 170 67 226 74 29 3 79 10 109 15 30 5
73 12 95 15 34 5 130 22 222 41 207 41 669 176 790 230 17 8 35 14 40 14 14 0
327 128 443 182 484 223 909 501 1104 724 l64 72 7 -56 c4 -31 9 -68 11 -82 2
-14 13 -77 24 -140 11 -63 22 -133 25 -155 4 -22 11 -67 16 -100 9 -57 19
-233 23 -435 2 -117 -17 -215 -74 -370 -65 -175 -111 -267 -178 -355 -119
-156 -355 -374 -602 -555 -88 -64 -92 -68 -79 -92 29 -55 108 -65 246 -32 149
36 210 39 280 14 32 -11 63 -22 68 -23 6 -1 15 -6 21 -10 6 -3 39 -13 73 -21
60 -14 147 -15 244 -1 26 3 47 2 47 -2 0 -5 -36 -70 -79 -146 -143 -248 -252
-382 -399 -490 -102 -75 -212 -146 -262 -169 -62 -29 -320 -89 -485 -113 -38
-5 -56 -7 -190 -20 -128 -12 -148 -26 -148 -102 0 -38 5 -51 27 -70 15 -13 39
-23 54 -24 51 -2 187 2 222 6 19 2 60 7 90 10 30 4 71 10 90 15 19 5 49 11 65
14 99 17 175 40 310 93 416 165 762 528 928 973 64 172 72 273 23 299 -53 29
-139 17 -151 -20 -15 -46 -111 -78 -256 -85 -103 -4 -130 2 -187 46 -12 10
-44 26 -71 36 l-49 17 57 38 c114 76 232 221 316 389 26 52 52 103 57 113 37
74 121 348 133 437 3 25 10 59 15 77 4 17 7 128 6 245 -3 182 -7 233 -29 348
-14 74 -29 158 -32 185 -4 28 -8 57 -10 65 -4 14 -8 41 -20 138 -2 20 -7 89
-10 152 -9 210 -16 315 -20 340 -3 14 -7 41 -10 60 -21 131 -69 179 -134 134z"/>
<path d="M2876 2853 c-1 -1 -152 -4 -336 -7 -233 -3 -367 -9 -440 -20 -58 -9
-123 -19 -145 -21 -81 -11 -80 -10 -81 -41 -2 -46 5 -56 35 -49 39 10 168 6
195 -7 45 -20 49 -50 47 -336 -1 -147 -3 -334 -6 -417 -16 -628 -16 -615 -30
-944 l-6 -143 68 6 c77 7 146 16 149 19 2 2 6 126 20 572 6 182 10 297 13 334
1 13 69 12 204 -5 88 -10 314 -12 359 -3 61 13 98 42 98 77 0 47 -11 73 -29
68 -57 -17 -302 -24 -549 -16 l-82 3 6 211 c8 290 13 481 13 544 l1 54 288 -4
c315 -4 336 -8 366 -67 20 -38 24 -69 25 -183 l1 -98 40 0 c25 0 40 5 41 13 0
6 2 21 4 32 6 35 15 145 21 275 8 161 15 155 -158 155 -71 0 -131 -1 -132 -2z"/>
</g>
</svg>
