<svg width="19" height="32" viewBox="0 0 19 32" fill="none" xmlns="http://www.w3.org/2000/svg">
<path d="M18.8574 30.0187C18.0079 30.925 15.7343 32 12.7736 32C5.22811 32 3.59159 26.45 3.59159 23.2125V14.2125H0.624625C0.281081 14.2125 0 13.9312 0 13.5875V9.3375C0 8.8875 0.281081 8.4875 0.705826 8.3375C4.5785 6.975 5.79652 3.5875 5.97141 1.01875C6.02138 0.33125 6.37742 0 6.97706 0H11.4057C11.7492 0 12.0303 0.28125 12.0303 0.625V7.825H17.2147C17.5582 7.825 17.8393 8.1 17.8393 8.44375V13.55C17.8393 13.8938 17.5582 14.175 17.2147 14.175H12.0053V22.5C12.0053 24.6375 13.4857 25.85 16.2527 24.7375C16.5526 24.6187 16.8149 24.5375 17.046 24.6C17.2646 24.6563 17.4083 24.8125 17.5082 25.0938L18.8824 29.1125C18.9948 29.425 19.0885 29.775 18.8574 30.0187Z" fill="#C14510"/>
</svg>
