<svg width="35" height="25" viewBox="0 0 35 25" fill="none" xmlns="http://www.w3.org/2000/svg">
<path d="M34.2686 3.91165C33.8661 2.37194 32.6801 1.15931 31.1743 0.747786C28.4448 0 17.5 0 17.5 0C17.5 0 6.55525 0 3.82573 0.747786C2.31988 1.15937 1.13389 2.37194 0.731359 3.91165C0 6.70247 0 12.5253 0 12.5253C0 12.5253 0 18.348 0.731359 21.1389C1.13389 22.6786 2.31988 23.8407 3.82573 24.2522C6.55525 25 17.5 25 17.5 25C17.5 25 28.4447 25 31.1743 24.2522C32.6801 23.8407 33.8661 22.6786 34.2686 21.1389C35 18.348 35 12.5253 35 12.5253C35 12.5253 35 6.70247 34.2686 3.91165V3.91165ZM13.9204 17.8119V7.23861L23.0681 12.5254L13.9204 17.8119V17.8119Z" fill="#C14510"/>
</svg>
